<svg xmlns="http://www.w3.org/2000/svg" width="250" height="64" viewBox="0 0 250 64" role="img" aria-label="LuxFrame">
  <title>LuxFrame</title>
  <g fill="none" fill-rule="evenodd">
    <g transform="translate(0 6)">
      <path d="M22 6c7.18 0 13 5.82 13 13s-5.82 13-13 13S9 26.18 9 19 14.82 6 22 6Z" fill="currentColor" opacity=".9"/>
      <path d="M22 0c10.493 0 19 8.507 19 19s-8.507 19-19 19S3 29.493 3 19 11.507 0 22 0Z" stroke="currentColor" stroke-width="2" opacity=".65"/>
      <path d="M41 19c8.5-6 17-8.8 28-8.8 7.4 0 12.8 1.2 19 3.8 5.8 2.4 11.4 3.6 18 3.6H106c-7.6 4.2-14.2 6.4-22 6.4-6.6 0-12-1.4-18.4-3.8-5.4-2.1-10.8-3.2-17.6-3.2-9.8 0-17.6 1.4-26 6.8Z" fill="currentColor"/>
      <path d="M41 19c10.6 7.7 19.1 11 31 11 7.9 0 13.4-1.4 19.5-4.6 5.3-2.8 10.4-4.2 16.5-4.2h.5c-7.8 6.8-15.8 10.2-26.8 10.2-12.7 0-22.7-3.9-40.7-12.4Z" fill="currentColor" opacity=".45"/>
    </g>
    <g transform="translate(120 10)" fill="currentColor">
      <text x="0" y="30" font-family="Cinzel, serif" font-size="30" letter-spacing=".5">LuxFrame</text>
    </g>
  </g>
</svg>
